HIERARCHY
ROOT root
{
	OFFSET	0	13.1	24.9
	CHANNELS 6  Xposition Yposition Zposition Xrotation Yrotation Zrotation
	JOINT spine_1
	{
		OFFSET	0	9.99999	0
		CHANNELS 3  Xrotation Yrotation Zrotation
		JOINT spine_2
		{
			OFFSET	0	112	-10
			CHANNELS 3  Xrotation Yrotation Zrotation
			JOINT spine_3
			{
				OFFSET	0	206.5	19.3
				CHANNELS 3  Xrotation Yrotation Zrotation
				JOINT spine_4
				{
					OFFSET	0	110.4	14.6
					CHANNELS 3  Xrotation Yrotation Zrotation
					JOINT neck_1
					{
						OFFSET	0	71.8	-50.3
						CHANNELS 3  Xrotation Yrotation Zrotation
						JOINT neck_2
						{
							OFFSET	0	86.2	-25.8
							CHANNELS 3  Xrotation Yrotation Zrotation
							JOINT head_ee
							{
								OFFSET	0	179.8	-8.7
								CHANNELS 3  Xrotation Yrotation Zrotation
								End Site
								{
									OFFSET	1	0	0
								}
							}
						}
					}
					JOINT left_clavicle
					{
						OFFSET	-43.2	22.4	-70.8
						CHANNELS 3  Xrotation Yrotation Zrotation
						JOINT left_shoulder
						{
							OFFSET	-93.9	-5.79999	48.7
							CHANNELS 3  Xrotation Yrotation Zrotation
							JOINT left_elbow
							{
								OFFSET	-291.4	-30.8	15.2
								CHANNELS 3  Xrotation Yrotation Zrotation
								JOINT left_lowarm_twist
								{
									OFFSET	-110.7	-3.89999	13.6
									CHANNELS 3  Xrotation Yrotation Zrotation
									JOINT left_hand
									{
										OFFSET	-110.7	-3.89999	13.6
										CHANNELS 3  Xrotation Yrotation Zrotation
										JOINT left_ee
										{
											OFFSET	-80.8	-5.10001	12.1
											CHANNELS 3  Xrotation Yrotation Zrotation
											End Site
											{
												OFFSET	1	0	0
											}
										}
									}
								}
							}
						}
					}
					JOINT right_clavicle
					{
						OFFSET	43.2	22.4	-70.8
						CHANNELS 3  Xrotation Yrotation Zrotation
						JOINT right_shoulder
						{
							OFFSET	93.9	-5.79999	48.7
							CHANNELS 3  Xrotation Yrotation Zrotation
							JOINT right_elbow
							{
								OFFSET	291.4	-30.8	15.2
								CHANNELS 3  Xrotation Yrotation Zrotation
								JOINT right_lowarm_twist
								{
									OFFSET	110.7	-3.89999	13.6
									CHANNELS 3  Xrotation Yrotation Zrotation
									JOINT right_hand
									{
										OFFSET	110.7	-3.89999	13.6
										CHANNELS 3  Xrotation Yrotation Zrotation
										JOINT right_ee
										{
											OFFSET	80.8	-5.10001	12.1
											CHANNELS 3  Xrotation Yrotation Zrotation
											End Site
											{
												OFFSET	1	0	0
											}
										}
									}
								}
							}
						}
					}
				}
			}
		}
	}
	JOINT left_hip
	{
		OFFSET	-82.8	-127.5	0.300001
		CHANNELS 3  Xrotation Yrotation Zrotation
		JOINT left_knee
		{
			OFFSET	-28.2	-396.7	2.2
			CHANNELS 3  Xrotation Yrotation Zrotation
			JOINT left_ankle
			{
				OFFSET	-11.7	-411.3	35.4
				CHANNELS 3  Xrotation Yrotation Zrotation
				JOINT left_toes
				{
					OFFSET	0	-60	-88.6
					CHANNELS 3  Xrotation Yrotation Zrotation
					JOINT left_foot_ee
					{
						OFFSET	-22.5	-16.5	-42.2
						CHANNELS 3  Xrotation Yrotation Zrotation
						End Site
						{
							OFFSET	1	0	0
						}
					}
				}
			}
		}
	}
	JOINT right_hip
	{
		OFFSET	82.8	-127.5	0.300001
		CHANNELS 3  Xrotation Yrotation Zrotation
		JOINT right_knee
		{
			OFFSET	28.2	-396.7	2.2
			CHANNELS 3  Xrotation Yrotation Zrotation
			JOINT right_ankle
			{
				OFFSET	11.7	-411.3	35.4
				CHANNELS 3  Xrotation Yrotation Zrotation
				JOINT right_toes
				{
					OFFSET	0	-60	-88.6
					CHANNELS 3  Xrotation Yrotation Zrotation
					JOINT right_foot_ee
					{
						OFFSET	22.5	-16.5	-42.2
						CHANNELS 3  Xrotation Yrotation Zrotation
						End Site
						{
							OFFSET	1	0	0
						}
					}
				}
			}
		}
	}
}
MOTION
Frames: 9
Frame Time: 0.02
1041.4 574.639 -1682.42 7.88056175177 11.830155411 3.09339050597 -2.72348 0.036032 -1.14486 -2.72276 0.108805 -1.14025 -2.72424 0.397588 -1.07422 -2.72578 0.222957 -1.12353 -2.96197 14.2583 3.51455 -2.72475 23.2304 5.67922 -0.0 0.0 -0.0 4.69184 15.9128 9.31295 -28.074 -17.0025 68.0471 1.2813 -32.4025 0.372295 -23.0045 -1.35043 2.59322 0.239842 7.79513 4.8026 -0.0 0.0 -0.0 11.5494 13.8949 -23.2069 -11.0 33.1321 -46.2016 1.30375 32.8543 -0.3844 -21.1663 1.20518 -2.40787 -6.75056 -7.475 45.8222 0.0 0.0 0.0 15.4508 -45.3601 -13.9778 -17.6126 0.316417 2.67367 14.0255 28.7759 -2.10606 32.8808 -0.0 -0.0 -0.0 0.0 -0.0 -12.5139 34.514 -6.91756 -25.4128 -0.192263 -3.86322 41.2259 -9.98989 4.98241 -9.65382 0.0 0.0 0.0 0.0 0.0 
1041.4 574.639 -1682.42 7.8981286758 12.4202191229 3.00975887589 -2.72348 0.036032 -1.14486 -2.72276 0.108805 -1.14025 -2.72424 0.397588 -1.07422 -2.72578 0.222957 -1.12353 -2.96197 14.2583 3.51455 -2.72475 23.2304 5.67922 -0.0 0.0 -0.0 4.69184 15.9128 9.31295 -28.074 -17.0025 68.0471 1.2813 -32.4025 0.372295 -23.0045 -1.35043 2.59322 0.239842 7.79513 4.8026 -0.0 0.0 -0.0 11.5494 13.8949 -23.2069 -11.0 33.1321 -46.2016 1.30375 32.8543 -0.3844 -21.1663 1.20518 -2.40787 -6.75056 -7.475 45.8222 0.0 0.0 0.0 15.4508 -45.3601 -13.9778 -17.6126 0.316417 2.67367 14.0255 28.7759 -2.10606 32.8808 -0.0 -0.0 -0.0 0.0 -0.0 -12.5139 34.514 -6.91756 -25.4128 -0.192263 -3.86322 41.2259 -9.98989 4.98241 -9.65382 0.0 0.0 0.0 0.0 0.0 
1041.4 574.639 -1682.42 7.92270768277 13.1982338699 2.89889816056 -2.72348 0.036032 -1.14486 -2.72276 0.108805 -1.14025 -2.72424 0.397588 -1.07422 -2.72578 0.222957 -1.12353 -2.96197 14.2583 3.51455 -2.72475 23.2304 5.67922 -0.0 0.0 -0.0 4.69184 15.9128 9.31295 -28.074 -17.0025 68.0471 1.2813 -32.4025 0.372295 -23.0045 -1.35043 2.59322 0.239842 7.79513 4.8026 -0.0 0.0 -0.0 11.5494 13.8949 -23.2069 -11.0 33.1321 -46.2016 1.30375 32.8543 -0.3844 -21.1663 1.20518 -2.40787 -6.75056 -7.475 45.8222 0.0 0.0 0.0 15.4508 -45.3601 -13.9778 -17.6126 0.316417 2.67367 14.0255 28.7759 -2.10606 32.8808 -0.0 -0.0 -0.0 0.0 -0.0 -12.5139 34.514 -6.91756 -25.4128 -0.192263 -3.86322 41.2259 -9.98989 4.98241 -9.65382 0.0 0.0 0.0 0.0 0.0 
1021.42164426 576.683 -1704.38553441 7.82836258241 13.785273351 2.99275120753 -2.40181 0.010332 -1.38724 -2.40074 0.0985761 -1.38377 -2.40214 0.442791 -1.31473 -2.40448 0.229618 -1.36815 -2.78942 15.1627 4.87535 -2.51309 23.7879 7.18367 -0.0 0.0 -0.0 4.7468 16.3628 9.39731 -28.4707 -15.3347 68.0359 1.32713 -33.3201 0.397166 -21.9362 -1.26529 2.48606 0.384837 8.1014 5.86877 -0.0 0.0 -0.0 11.6113 11.9251 -23.3882 -12.7525 31.9388 -46.8767 1.24861 31.7365 -0.354941 -22.5434 1.31343 -2.54716 -6.81028 -5.54983 48.1042 0.0 0.0 0.0 15.5513 -45.372 -12.8855 -21.8812 0.268545 3.32673 16.9222 28.2714 -2.50641 33.5293 -0.0 -0.0 -0.0 0.0 -0.0 -12.6592 36.0399 -6.66582 -26.6158 -0.158741 -4.0448 40.9192 -10.3445 4.95903 -7.90624 0.0 0.0 0.0 0.0 0.0 
1021.17089123 576.683 -1704.15482364 7.85090872341 14.4366482576 2.90027490866 -2.40181 0.010332 -1.38724 -2.40074 0.0985761 -1.38377 -2.40214 0.442791 -1.31473 -2.40448 0.229618 -1.36815 -2.78942 15.1627 4.87535 -2.51309 23.7879 7.18367 -0.0 0.0 -0.0 4.7468 16.3628 9.39731 -28.4707 -15.3347 68.0359 1.32713 -33.3201 0.397166 -21.9362 -1.26529 2.48606 0.384837 8.1014 5.86877 -0.0 0.0 -0.0 11.6113 11.9251 -23.3882 -12.7525 31.9388 -46.8767 1.24861 31.7365 -0.354941 -22.5434 1.31343 -2.54716 -6.81028 -5.54983 48.1042 0.0 0.0 0.0 15.5513 -45.372 -12.8855 -21.8812 0.268545 3.32673 16.9222 28.2714 -2.50641 33.5293 -0.0 -0.0 -0.0 0.0 -0.0 -12.6592 36.0399 -6.66582 -26.6158 -0.158741 -4.0448 40.9192 -10.3445 4.95903 -7.90624 0.0 0.0 0.0 0.0 0.0 
1021.01099518 576.683 -1704.00489941 7.86602219858 14.8556395263 2.84050249599 -2.40181 0.010332 -1.38724 -2.40074 0.0985761 -1.38377 -2.40214 0.442791 -1.31473 -2.40448 0.229618 -1.36815 -2.78942 15.1627 4.87535 -2.51309 23.7879 7.18367 -0.0 0.0 -0.0 4.7468 16.3628 9.39731 -28.4707 -15.3347 68.0359 1.32713 -33.3201 0.397166 -21.9362 -1.26529 2.48606 0.384837 8.1014 5.86877 -0.0 0.0 -0.0 11.6113 11.9251 -23.3882 -12.7525 31.9388 -46.8767 1.24861 31.7365 -0.354941 -22.5434 1.31343 -2.54716 -6.81028 -5.54983 48.1042 0.0 0.0 0.0 15.5513 -45.372 -12.8855 -21.8812 0.268545 3.32673 16.9222 28.2714 -2.50641 33.5293 -0.0 -0.0 -0.0 0.0 -0.0 -12.6592 36.0399 -6.66582 -26.6158 -0.158741 -4.0448 40.9192 -10.3445 4.95903 -7.90624 0.0 0.0 0.0 0.0 0.0 
1020.72521136 576.683 -1703.73132362 7.89452646232 15.6118527634 2.73202363593 -2.40181 0.010332 -1.38724 -2.40074 0.0985761 -1.38377 -2.40214 0.442791 -1.31473 -2.40448 0.229618 -1.36815 -2.78942 15.1627 4.87535 -2.51309 23.7879 7.18367 -0.0 0.0 -0.0 4.7468 16.3628 9.39731 -28.4707 -15.3347 68.0359 1.32713 -33.3201 0.397166 -21.9362 -1.26529 2.48606 0.384837 8.1014 5.86877 -0.0 0.0 -0.0 11.6113 11.9251 -23.3882 -12.7525 31.9388 -46.8767 1.24861 31.7365 -0.354941 -22.5434 1.31343 -2.54716 -6.81028 -5.54983 48.1042 0.0 0.0 0.0 15.5513 -45.372 -12.8855 -21.8812 0.268545 3.32673 16.9222 28.2714 -2.50641 33.5293 -0.0 -0.0 -0.0 0.0 -0.0 -12.6592 36.0399 -6.66582 -26.6158 -0.158741 -4.0448 40.9192 -10.3445 4.95903 -7.90624 0.0 0.0 0.0 0.0 0.0 
969.216993442 585.62 -1741.09108286 9.73282604959 15.2192096592 3.85279270887 -2.56555 -0.357237 -1.83732 -2.56371 -0.23962 -1.85632 -2.55355 0.238873 -1.85642 -2.55836 -0.0572576 -1.87084 -6.32208 15.5631 6.65068 -6.18745 24.0282 9.65622 -0.0 0.0 -0.0 4.36827 14.3073 8.78786 -25.9241 -14.879 70.375 1.40026 -34.7451 0.438097 -18.7792 -1.02561 2.16045 0.516374 6.89845 6.24964 -0.0 0.0 -0.0 11.5525 11.6785 -23.2589 -16.6745 29.1541 -46.7864 1.02855 26.9987 -0.246926 -26.169 1.61419 -2.90118 -6.78238 -1.70708 51.1248 0.0 0.0 0.0 10.1108 -45.2414 -12.2831 -28.7818 0.0887947 4.36984 14.2456 27.8486 -2.12448 32.9129 -0.0 -0.0 -0.0 0.0 -0.0 -15.3818 35.5766 -5.15525 -24.9803 -0.203381 -3.79778 39.8823 -9.77825 4.86452 -7.43562 0.0 0.0 0.0 0.0 0.0 
949.223059741 588.449 -1756.36621346 10.4867465603 16.2555509494 4.52411877002 -2.49118 -0.503671 -2.19937 -2.48856 -0.362734 -2.22695 -2.47097 0.210479 -2.24645 -2.47798 -0.146854 -2.2515 -5.79254 16.022 5.90451 -5.6441 25.3061 8.90226 -0.0 0.0 -0.0 4.97648 16.2017 9.76642 -26.206 -15.9731 69.0899 1.42633 -35.2415 0.453049 -18.2799 -0.989375 2.10778 0.865956 6.68228 8.46279 -0.0 0.0 -0.0 11.3235 10.829 -22.7533 -18.7101 28.213 -47.0061 0.963943 25.5245 -0.218339 -27.2964 1.71224 -3.00734 -6.7649 -1.37926 51.2114 0.0 0.0 0.0 8.04867 -44.3956 -12.8096 -30.4109 0.0281107 4.61247 17.4317 27.7192 -2.56763 35.2205 -0.0 -0.0 -0.0 0.0 -0.0 -15.2181 34.2589 -5.81397 -26.133 -0.172652 -3.97201 40.0561 -8.86105 4.87387 -5.03841 0.0 0.0 0.0 0.0 0.0 
